<svg width="34" height="34" viewBox="0 0 34 34" fill="none" xmlns="http://www.w3.org/2000/svg">
<path d="M13.796 20.2232L1.67404 15.3086C1.2437 15.1391 0.938275 14.8841 0.757758 14.5436C0.577242 14.203 0.48779 13.8552 0.489401 13.5001C0.491013 13.145 0.590942 12.7932 0.789187 12.4446C0.987433 12.0959 1.30253 11.8377 1.73448 11.6698L30.8186 0.649444C31.1989 0.488044 31.5721 0.457379 31.9379 0.557447C32.3038 0.657515 32.6197 0.840703 32.8856 1.10701C33.1516 1.37332 33.3337 1.68967 33.432 2.05605C33.5319 2.42242 33.5013 2.79526 33.3401 3.17455L22.2384 32.2701C22.0756 32.6801 21.8242 32.9876 21.4841 33.1925C21.144 33.3975 20.7951 33.5 20.4373 33.5C20.0794 33.5 19.7265 33.4015 19.3783 33.2046C19.0302 33.0077 18.7731 32.6954 18.6071 32.2677L13.796 20.2232Z" fill="black"/>
</svg>
