<svg width="33" height="33" viewBox="0 0 33 33" fill="none" xmlns="http://www.w3.org/2000/svg">
<path d="M31.7155 10.1063C30.8874 8.13411 29.6827 6.34156 28.1686 4.82849C26.659 3.31281 24.8658 2.10775 22.8908 1.28173C20.8675 0.431424 18.6936 -0.00443817 16.4983 3.407e-05H16.4245C14.1915 0.0110832 12.0324 0.453047 9.99875 1.32224C8.04067 2.15674 6.26428 3.36394 4.76886 4.87637C3.2694 6.38602 2.07852 8.17232 1.26259 10.1357C0.415608 12.1775 -0.0135628 14.3676 0.000326662 16.5774C0.0113991 19.1334 0.624075 21.671 1.76823 23.9397V29.538C1.76823 30.4734 2.52854 31.2321 3.46231 31.2321H9.06497C11.3491 32.3823 13.8697 32.9875 16.4281 33H16.5057C18.7128 33 20.8497 32.5728 22.8649 31.7367C24.83 30.9206 26.6165 29.7295 28.1243 28.2305C29.645 26.7241 30.8408 24.9636 31.6786 23.0006C32.5459 20.9675 32.9888 18.8056 32.9999 16.5737C33.0073 14.3307 32.5718 12.154 31.7155 10.1063ZM9.1314 18.2679C8.15703 18.2679 7.3635 17.476 7.3635 16.5C7.3635 15.524 8.15703 14.7322 9.1314 14.7322C10.1058 14.7322 10.8993 15.524 10.8993 16.5C10.8993 17.476 10.1095 18.2679 9.1314 18.2679ZM16.4983 18.2679C15.5239 18.2679 14.7304 17.476 14.7304 16.5C14.7304 15.524 15.5239 14.7322 16.4983 14.7322C17.4726 14.7322 18.2662 15.524 18.2662 16.5C18.2662 17.476 17.4726 18.2679 16.4983 18.2679ZM23.8651 18.2679C22.8908 18.2679 22.0972 17.476 22.0972 16.5C22.0972 15.524 22.8908 14.7322 23.8651 14.7322C24.8395 14.7322 25.633 15.524 25.633 16.5C25.633 17.476 24.8395 18.2679 23.8651 18.2679Z" fill="black"/>
</svg>
