<svg width="181" height="180" viewBox="0 0 181 180" fill="none" xmlns="http://www.w3.org/2000/svg">
<circle cx="90.5" cy="90" r="90" fill="#FFD7CD"/>
<path d="M35 137.75C34.7239 137.75 34.5 137.526 34.5 137.25V71C34.5 68.6131 35.4482 66.3239 37.136 64.636C38.7504 63.0216 40.9151 62.0839 43.1891 62.0054C43.5639 61.9924 43.966 61.9272 44.3663 61.7772L83.3244 47.1678C83.6513 47.0453 84 47.2869 84 47.636V58.5C84 60.4876 85.588 61.8511 87.204 62.1627C88.9569 62.5008 90.5835 63.3556 91.864 64.636C93.5518 66.3239 94.5 68.6131 94.5 71V137.25C94.5 137.526 94.2761 137.75 94 137.75H66.5C66.2239 137.75 66 137.526 66 137.25V115C66 113.067 64.433 111.5 62.5 111.5H45.5C43.567 111.5 42 113.067 42 115V137.25C42 137.526 41.7761 137.75 41.5 137.75H35ZM73.5 126.75C73.5 128.683 75.067 130.25 77 130.25H83.5C85.433 130.25 87 128.683 87 126.75V115C87 113.067 85.433 111.5 83.5 111.5H77C75.067 111.5 73.5 113.067 73.5 115V126.75ZM42 95.25C42 97.183 43.567 98.75 45.5 98.75H52C53.933 98.75 55.5 97.183 55.5 95.25V78.25C55.5 76.317 53.933 74.75 52 74.75H45.5C43.567 74.75 42 76.317 42 78.25V95.25ZM63 95.25C63 97.183 64.567 98.75 66.5 98.75H83.5C85.433 98.75 87 97.183 87 95.25V78.25C87 76.317 85.433 74.75 83.5 74.75H66.5C64.567 74.75 63 76.317 63 78.25V95.25Z" fill="#F45B0F" stroke="#333333" stroke-width="3"/>
<path d="M139.5 139.125C140.605 139.125 141.5 138.23 141.5 137.125V92C141.5 90.0772 140.727 88.2331 139.352 86.8735C138.062 85.5977 136.34 84.8464 134.525 84.7587C134.288 84.7472 134.053 84.7078 133.83 84.6253L107.529 74.8742C106.222 74.3899 104.833 75.3563 104.833 76.7495V82.75C104.833 83.8546 103.922 84.7236 102.857 85.0181C101.655 85.3508 100.547 85.9849 99.6479 86.8735C98.2726 88.2331 97.5 90.0772 97.5 92V137.125C97.5 138.23 98.3954 139.125 99.5 139.125H117.5C118.605 139.125 119.5 138.23 119.5 137.125V123C119.5 121.895 120.395 121 121.5 121H132.167C133.271 121 134.167 121.895 134.167 123V137.125C134.167 138.23 135.062 139.125 136.167 139.125H139.5ZM112.167 129.875C112.167 130.98 111.271 131.875 110.167 131.875H106.833C105.729 131.875 104.833 130.98 104.833 129.875V123C104.833 121.895 105.729 121 106.833 121H110.167C111.271 121 112.167 121.895 112.167 123V129.875ZM134.167 108.125C134.167 109.23 133.271 110.125 132.167 110.125H128.833C127.729 110.125 126.833 109.23 126.833 108.125V97.625C126.833 96.5204 127.729 95.625 128.833 95.625H132.167C133.271 95.625 134.167 96.5204 134.167 97.625V108.125ZM119.5 108.125C119.5 109.23 118.605 110.125 117.5 110.125H106.833C105.729 110.125 104.833 109.23 104.833 108.125V97.625C104.833 96.5204 105.729 95.625 106.833 95.625H117.5C118.605 95.625 119.5 96.5204 119.5 97.625V108.125Z" fill="#333333"/>
<circle cx="127.5" cy="49" r="23" fill="white"/>
<path d="M134.251 41.116C133.916 40.9299 133.548 40.8116 133.167 40.7678C132.787 40.724 132.401 40.7557 132.033 40.8609C131.664 40.9661 131.32 41.1429 131.02 41.3811C130.72 41.6193 130.47 41.9142 130.284 42.2491L124.869 51.9937L121.77 48.8948C121.501 48.6162 121.18 48.394 120.824 48.2411C120.468 48.0883 120.085 48.0078 119.698 48.0045C119.311 48.0011 118.927 48.0749 118.568 48.2215C118.21 48.3682 117.884 48.5848 117.61 48.8586C117.336 49.1325 117.12 49.4581 116.973 49.8166C116.826 50.175 116.753 50.5591 116.756 50.9464C116.759 51.3336 116.84 51.7164 116.993 52.0722C117.146 52.428 117.368 52.7499 117.646 53.0189L123.48 58.8523C124.031 59.405 124.775 59.7083 125.542 59.7083L125.946 59.6791C126.393 59.6166 126.819 59.4512 127.191 59.1958C127.564 58.9405 127.872 58.6022 128.091 58.2077L135.383 45.0827C135.569 44.7479 135.687 44.3798 135.731 43.9993C135.775 43.6187 135.743 43.2333 135.638 42.865C135.533 42.4966 135.357 42.1526 135.119 41.8525C134.88 41.5524 134.586 41.3022 134.251 41.116Z" fill="#F45B0F"/>
</svg>
