<svg width="34" height="34" viewBox="0 0 34 34" fill="none" xmlns="http://www.w3.org/2000/svg">
<path d="M28.0238 26.3103C28.0302 26.3006 28.0399 26.2909 28.0463 26.2812C30.1572 23.7708 31.4269 20.5353 31.4269 17C31.4269 13.4647 30.1572 10.2292 28.0495 7.71875C28.0431 7.70908 28.0334 7.70264 28.027 7.69297C27.9915 7.65107 27.9593 7.6124 27.9239 7.57373C27.911 7.55762 27.8981 7.54473 27.8852 7.52861L27.7531 7.37715L27.7498 7.37393C27.7015 7.31914 27.6499 7.26436 27.6016 7.20957L27.5984 7.20635C27.4952 7.09678 27.3921 6.98721 27.2858 6.88086L27.2825 6.87764L27.1279 6.72295L27.1182 6.71328C27.0698 6.66494 27.0215 6.61982 26.9732 6.57471C26.9571 6.55859 26.9409 6.54248 26.9216 6.52637C26.8894 6.49414 26.8572 6.46514 26.8249 6.43613C26.8153 6.42646 26.8024 6.4168 26.7927 6.40391C24.221 4.01914 20.776 2.5625 16.9894 2.5625C13.2028 2.5625 9.75774 4.01914 7.18284 6.40391C7.17317 6.41357 7.16028 6.42324 7.15061 6.43613C7.11838 6.46514 7.08616 6.49736 7.05393 6.52959C7.03782 6.5457 7.0217 6.56182 7.00237 6.57793C6.95403 6.62305 6.90569 6.67139 6.85735 6.7165L6.84768 6.72617L6.69299 6.88086L6.68977 6.88408C6.58342 6.99043 6.4803 7.1 6.37717 7.20957L6.37395 7.21279C6.32239 7.26758 6.27405 7.32236 6.22571 7.37715L6.22249 7.38037C6.17737 7.42871 6.13225 7.48027 6.09036 7.53184C6.07747 7.54795 6.06458 7.56084 6.05168 7.57695C6.01624 7.61563 5.98401 7.65752 5.94856 7.69619C5.94211 7.70586 5.93245 7.71231 5.926 7.72197C3.82161 10.2292 2.55188 13.4647 2.55188 17C2.55188 20.5353 3.82161 23.7708 5.92922 26.2812C5.93567 26.2909 5.94534 26.3006 5.95178 26.3103L6.05168 26.4295C6.06458 26.4456 6.07747 26.4585 6.09036 26.4746L6.22249 26.6261C6.22249 26.6293 6.22571 26.6293 6.22571 26.6325C6.27405 26.6873 6.32239 26.7421 6.37395 26.7937L6.37717 26.7969C6.4803 26.9064 6.58342 27.016 6.68655 27.1224L6.68977 27.1256C6.74133 27.1771 6.78967 27.2287 6.84124 27.2771L6.8509 27.2867C6.95725 27.3931 7.06682 27.4962 7.17639 27.5961C9.75774 29.9809 13.2028 31.4375 16.9894 31.4375C20.776 31.4375 24.221 29.9809 26.7959 27.5961C26.9057 27.4955 27.0132 27.3923 27.1182 27.2867L27.1279 27.2771C27.1794 27.2255 27.231 27.1771 27.2793 27.1256L27.2825 27.1224C27.3889 27.016 27.492 26.9064 27.5919 26.7969L27.5951 26.7937C27.6435 26.7389 27.695 26.6873 27.7434 26.6325C27.7434 26.6293 27.7466 26.6293 27.7466 26.6261C27.7917 26.5777 27.8368 26.5262 27.8787 26.4746C27.8916 26.4585 27.9045 26.4456 27.9174 26.4295C27.9538 26.3906 27.9893 26.3509 28.0238 26.3103ZM28.1559 21.7147C27.7112 22.7653 27.1246 23.7386 26.4092 24.6216C25.6035 23.9252 24.7225 23.321 23.7827 22.8201C24.1566 21.3087 24.3886 19.649 24.4498 17.9023H29.0743C28.9777 19.2204 28.6683 20.4998 28.1559 21.7147ZM29.0743 16.0977H24.4498C24.3886 14.351 24.1566 12.6913 23.7827 11.1799C24.727 10.6771 25.6068 10.0713 26.4092 9.37842C27.9644 11.2926 28.8946 13.6379 29.0743 16.0977ZM21.7041 5.8335C22.9835 6.3749 24.1469 7.12256 25.1717 8.06357C24.5764 8.57048 23.9356 9.02141 23.2574 9.41064C22.7515 7.96045 22.1037 6.70039 21.3496 5.6917C21.4689 5.73682 21.5881 5.78516 21.7041 5.8335ZM18.7844 28.4114C18.4879 28.6435 18.1914 28.8207 17.8917 28.9399V22.9619C19.1704 23.0511 20.4279 23.3359 21.6203 23.8062C21.3529 24.599 21.0435 25.3306 20.6858 25.9912C20.125 27.0354 19.4676 27.87 18.7844 28.4114ZM20.6858 8.00879C21.0403 8.67266 21.3529 9.4042 21.6203 10.1937C20.4279 10.6641 19.1704 10.9489 17.8917 11.0381V5.06328C18.1882 5.18252 18.4879 5.35654 18.7844 5.5918C19.4676 6.12998 20.125 6.96465 20.6858 8.00879ZM17.8917 21.154V17.9023H22.6451C22.5936 19.3268 22.4163 20.7093 22.1198 22.0209L22.1102 22.0596C20.7577 21.5467 19.3355 21.2414 17.8917 21.154ZM17.8917 16.0977V12.846C19.3677 12.7558 20.7857 12.4432 22.1102 11.9404L22.1198 11.9791C22.4163 13.2907 22.5936 14.67 22.6451 16.0977H17.8917ZM16.087 17.9023V21.154C14.6111 21.2442 13.1931 21.5568 11.8686 22.0596L11.8589 22.0209C11.5624 20.7093 11.3852 19.33 11.3336 17.9023H16.087ZM11.3336 16.0977C11.3852 14.6732 11.5624 13.2907 11.8589 11.9791L11.8686 11.9404C13.1931 12.4432 14.6078 12.7558 16.087 12.846V16.0977H11.3336ZM16.087 22.9619V28.9367C15.7906 28.8175 15.4908 28.6435 15.1944 28.4082C14.5112 27.87 13.8505 27.0321 13.2898 25.988C12.9353 25.3241 12.6227 24.5926 12.3552 23.803C13.554 23.3325 14.8012 23.0521 16.087 22.9619ZM16.087 11.0381C14.8083 10.9489 13.5508 10.6641 12.3584 10.1937C12.6259 9.40098 12.9353 8.66943 13.293 8.00879C13.8537 6.96465 14.5112 6.12676 15.1976 5.58857C15.4941 5.35654 15.7906 5.1793 16.0903 5.06006V11.0381H16.087ZM12.2746 5.8335C12.3939 5.78516 12.5099 5.73682 12.6291 5.6917C11.875 6.70039 11.2273 7.96045 10.7213 9.41064C10.0446 9.02393 9.40325 8.57275 8.80706 8.06357C9.83186 7.12256 10.9952 6.3749 12.2746 5.8335ZM5.82288 12.2853C6.2676 11.2347 6.85413 10.2614 7.56956 9.37842C8.372 10.0713 9.25178 10.6771 10.196 11.1799C9.82219 12.6913 9.59016 14.351 9.52893 16.0977H4.90442C5.0011 14.7796 5.31047 13.5002 5.82288 12.2853ZM4.90442 17.9023H9.52893C9.59016 19.649 9.82219 21.3087 10.196 22.8201C9.25622 23.321 8.37528 23.9252 7.56956 24.6216C6.0144 22.7074 5.08414 20.3621 4.90442 17.9023ZM12.2746 28.1665C10.9952 27.6251 9.83186 26.8774 8.80706 25.9364C9.40325 25.4272 10.0446 24.9793 10.7213 24.5894C11.2273 26.0396 11.875 27.2996 12.6291 28.3083C12.5099 28.2632 12.3906 28.2148 12.2746 28.1665ZM21.7041 28.1665C21.5849 28.2148 21.4689 28.2632 21.3496 28.3083C22.1037 27.2996 22.7515 26.0396 23.2574 24.5894C23.9342 24.9761 24.5755 25.4272 25.1717 25.9364C24.1526 26.8735 22.9795 27.6279 21.7041 28.1665Z" fill="black"/>
</svg>
