<svg width="41" height="28" viewBox="0 0 41 28" fill="none" xmlns="http://www.w3.org/2000/svg">
<path d="M12.4894 14C16.3581 14 19.4894 10.9806 19.4894 7.25C19.4894 3.51942 16.3581 0.5 12.4894 0.5C8.62063 0.5 5.48938 3.51942 5.48938 7.25C5.48938 10.9806 8.62063 14 12.4894 14ZM17.2894 15.9286H16.7706C15.4706 16.5313 14.0269 16.8929 12.4894 16.8929C10.9519 16.8929 9.51438 16.5313 8.20813 15.9286H7.68938C3.71438 15.9286 0.48938 19.0384 0.48938 22.8714V24.6071C0.48938 26.2042 1.83313 27.5 3.48938 27.5H21.4894C23.1456 27.5 24.4894 26.2042 24.4894 24.6071V22.8714C24.4894 19.0384 21.2644 15.9286 17.2894 15.9286ZM30.4894 14C33.8019 14 36.4894 11.4085 36.4894 8.21429C36.4894 5.02009 33.8019 2.42857 30.4894 2.42857C27.1769 2.42857 24.4894 5.02009 24.4894 8.21429C24.4894 11.4085 27.1769 14 30.4894 14ZM33.4894 15.9286H33.2519C32.3831 16.2179 31.4644 16.4107 30.4894 16.4107C29.5144 16.4107 28.5956 16.2179 27.7269 15.9286H27.4894C26.2144 15.9286 25.0394 16.2842 24.0081 16.8567C25.5331 18.4417 26.4894 20.5451 26.4894 22.8714V25.1857C26.4894 25.3183 26.4581 25.4449 26.4519 25.5714H37.4894C39.1456 25.5714 40.4894 24.2757 40.4894 22.6786C40.4894 18.948 37.3581 15.9286 33.4894 15.9286Z" fill="black"/>
</svg>
