<svg width="183" height="196" viewBox="0 0 183 196" fill="none" xmlns="http://www.w3.org/2000/svg">
<circle cx="90.5874" cy="90.022" r="90" fill="#FFD7CD"/>
<path d="M108.254 49.5322C118.132 49.5937 123.482 50.0909 126.97 54.0269C130.962 58.5317 130.962 65.7785 130.962 80.272V111.022C130.962 125.521 130.962 132.767 126.97 137.272C122.983 141.772 116.556 141.772 103.712 141.772H76.4624C63.6186 141.772 57.1921 141.772 53.2045 137.272C49.2124 132.762 49.2124 125.521 49.2124 111.022V80.272C49.2124 65.7785 49.2124 58.5317 53.2045 54.0269C56.6925 50.0909 62.0426 49.5937 71.9207 49.5322" stroke="#F45B0F" stroke-width="6"/>
<path d="M83.275 100.772H112.796M67.3792 100.772H69.65M67.3792 82.8345H69.65M67.3792 118.709H69.65M83.275 82.8345H112.796M83.275 118.709H112.796" stroke="#F45B0F" stroke-width="6" stroke-linecap="round"/>
<path d="M71.9207 46.9595C71.9207 44.9206 72.6384 42.9653 73.916 41.5236C75.1936 40.0819 76.9264 39.272 78.7332 39.272H101.441C103.248 39.272 104.981 40.0819 106.259 41.5236C107.536 42.9653 108.254 44.9206 108.254 46.9595V52.0845C108.254 54.1233 107.536 56.0787 106.259 57.5204C104.981 58.962 103.248 59.772 101.441 59.772H78.7332C76.9264 59.772 75.1936 58.962 73.916 57.5204C72.6384 56.0787 71.9207 54.1233 71.9207 52.0845V46.9595Z" stroke="#F45B0F" stroke-width="6"/>
<path d="M112.291 104.772H102.837V95.3189L156.143 41.8812L165.728 51.4684L112.291 104.772ZM167.758 49.4282L158.181 39.8514L163.623 34.5817C164.463 33.7361 165.752 33.272 166.947 33.272C167.535 33.2704 168.117 33.3853 168.661 33.6101C169.204 33.8348 169.698 34.1651 170.113 34.5817L173.035 37.5036C173.449 37.9182 173.778 38.4108 174.002 38.9529C174.225 39.4951 174.339 40.0762 174.337 40.6626C174.337 41.8657 173.872 43.1462 173.028 43.9901L167.758 49.4282Z" fill="#333333"/>
<rect x="71.5874" y="155.978" width="40" height="40" rx="20" fill="#F45B0F"/>
<path d="M86.5139 183.978V182.682C86.9299 181.706 87.5059 180.826 88.2419 180.042C88.9939 179.258 89.7939 178.498 90.6419 177.762C91.2819 177.202 91.8099 176.73 92.2259 176.346C92.6579 175.946 92.9939 175.586 93.2339 175.266C93.4739 174.946 93.6419 174.618 93.7379 174.282C93.8339 173.93 93.8819 173.522 93.8819 173.058C93.8819 172.226 93.6419 171.594 93.1619 171.162C92.6819 170.73 91.8819 170.514 90.7619 170.514C90.1539 170.514 89.5299 170.578 88.8899 170.706C88.2659 170.834 87.6659 171.01 87.0899 171.234V168.93C87.6499 168.738 88.3139 168.586 89.0819 168.474C89.8499 168.346 90.5779 168.282 91.2659 168.282C92.9939 168.282 94.2979 168.706 95.1779 169.554C96.0579 170.402 96.4979 171.562 96.4979 173.034C96.4979 173.77 96.3699 174.426 96.1139 175.002C95.8579 175.562 95.5059 176.098 95.0579 176.61C94.6099 177.106 94.0899 177.618 93.4979 178.146C92.7619 178.786 92.0659 179.41 91.4099 180.018C90.7699 180.61 90.2499 181.258 89.8499 181.962H96.6659V183.978H86.5139Z" fill="white"/>
</svg>
