<svg width="181" height="196" viewBox="0 0 181 196" fill="none" xmlns="http://www.w3.org/2000/svg">
<circle cx="90.5875" cy="90.022" r="90" fill="#FFD7CD"/>
<g clip-path="url(#clip0_488_359)">
<path d="M47.7125 44.6157C47.7125 43.6792 48.0846 42.781 48.7468 42.1188C49.409 41.4565 50.3072 41.0845 51.2438 41.0845H72.4313C73.3678 41.0845 74.266 41.4565 74.9282 42.1188C75.5905 42.781 75.9625 43.6792 75.9625 44.6157V69.3345H79.4938C82.3034 69.3345 84.998 70.4506 86.9847 72.4373C88.9714 74.424 90.0875 77.1186 90.0875 79.9282V83.4595H83.025V79.9282C83.025 78.9917 82.653 78.0935 81.9907 77.4313C81.3285 76.769 80.4303 76.397 79.4938 76.397H44.1813C43.2447 76.397 42.3465 76.769 41.6843 77.4313C41.0221 78.0935 40.65 78.9917 40.65 79.9282V129.366C40.65 130.302 41.0221 131.2 41.6843 131.863C42.3465 132.525 43.2447 132.897 44.1813 132.897H61.8375V139.959H51.2438V141.725C51.2438 143.13 50.6857 144.477 49.6924 145.471C48.699 146.464 47.3517 147.022 45.9469 147.022C44.5421 147.022 43.1948 146.464 42.2014 145.471C41.2081 144.477 40.65 143.13 40.65 141.725V139.359C38.5837 138.629 36.7948 137.275 35.5299 135.485C34.265 133.695 33.5864 131.557 33.5875 129.366V79.9282C33.5875 77.1186 34.7036 74.424 36.6904 72.4373C38.6771 70.4506 41.3716 69.3345 44.1813 69.3345H47.7125V44.6157ZM54.775 69.3345H68.9V48.147H54.775V69.3345Z" fill="#333333"/>
<path d="M51.2438 83.4595C52.1803 83.4595 53.0785 83.8315 53.7407 84.4938C54.403 85.156 54.775 86.0542 54.775 86.9907V122.303C54.775 123.24 54.403 124.138 53.7407 124.8C53.0785 125.462 52.1803 125.834 51.2438 125.834C50.3072 125.834 49.409 125.462 48.7468 124.8C48.0846 124.138 47.7125 123.24 47.7125 122.303V86.9907C47.7125 86.0542 48.0846 85.156 48.7468 84.4938C49.409 83.8315 50.3072 83.4595 51.2438 83.4595ZM121.869 90.522V86.9907C121.869 84.1811 120.753 81.4865 118.766 79.4998C116.779 77.5131 114.085 76.397 111.275 76.397H104.213C101.403 76.397 98.7083 77.5131 96.7216 79.4998C94.7349 81.4865 93.6188 84.1811 93.6188 86.9907V90.522H90.0875V147.022H125.4V90.522H121.869ZM104.213 83.4595H111.275C112.212 83.4595 113.11 83.8315 113.772 84.4938C114.434 85.156 114.806 86.0542 114.806 86.9907V90.522H100.681V86.9907C100.681 86.0542 101.053 85.156 101.716 84.4938C102.378 83.8315 103.276 83.4595 104.213 83.4595ZM68.9 101.116C68.9 98.3061 70.0161 95.6115 72.0029 93.6248C73.9896 91.6381 76.6841 90.522 79.4938 90.522H83.025V147.022H79.4938C76.6841 147.022 73.9896 145.906 72.0029 143.919C70.0161 141.932 68.9 139.238 68.9 136.428V101.116ZM132.463 147.022V90.522H135.994C138.803 90.522 141.498 91.6381 143.485 93.6248C145.471 95.6115 146.588 98.3061 146.588 101.116V136.428C146.588 139.238 145.471 141.932 143.485 143.919C141.498 145.906 138.803 147.022 135.994 147.022H132.463Z" fill="#F45B0F"/>
</g>
<rect x="70.5875" y="155.978" width="40" height="40" rx="20" fill="#F45B0F"/>
<path d="M89.7889 184.218C89.3249 184.218 88.8129 184.186 88.2529 184.122C87.6929 184.074 87.1569 183.994 86.6449 183.882C86.1489 183.77 85.7329 183.65 85.3969 183.522V181.242C86.0369 181.498 86.6929 181.69 87.3649 181.818C88.0529 181.93 88.7409 181.986 89.4289 181.986C90.6769 181.986 91.6049 181.802 92.2129 181.434C92.8209 181.066 93.1249 180.418 93.1249 179.49C93.1249 178.658 92.8449 178.058 92.2849 177.69C91.7409 177.322 90.9569 177.138 89.9329 177.138H87.6049L87.8209 175.194H89.7649C91.7969 175.194 92.8129 174.394 92.8129 172.794C92.8129 172.01 92.5409 171.434 91.9969 171.066C91.4689 170.698 90.6129 170.514 89.4289 170.514C88.7729 170.514 88.1089 170.578 87.4369 170.706C86.7809 170.834 86.1969 171.01 85.6849 171.234V169.002C86.1649 168.81 86.7889 168.642 87.5569 168.498C88.3249 168.354 89.0849 168.282 89.8369 168.282C91.7249 168.282 93.1249 168.682 94.0369 169.482C94.9649 170.282 95.4289 171.306 95.4289 172.554C95.4289 173.322 95.2369 174.042 94.8529 174.714C94.4849 175.386 93.9009 175.866 93.1009 176.154C94.0289 176.394 94.7009 176.826 95.1169 177.45C95.5489 178.074 95.7649 178.81 95.7649 179.658C95.7649 181.21 95.2209 182.362 94.1329 183.114C93.0449 183.85 91.5969 184.218 89.7889 184.218Z" fill="white"/>
<defs>
<clipPath id="clip0_488_359">
<rect width="113" height="113" fill="white" transform="translate(33.5875 34.022)"/>
</clipPath>
</defs>
</svg>
