<svg width="180" height="180" viewBox="0 0 180 180" fill="none" xmlns="http://www.w3.org/2000/svg">
<circle cx="90" cy="90" r="90" fill="#FFD7CD"/>
<g clip-path="url(#clip0_477_58)">
<rect x="54" y="36" width="62" height="108" fill="#F45B0F"/>
<path d="M107 37.5C108.989 37.5 110.897 38.2902 112.303 39.6967C113.71 41.1032 114.5 43.0109 114.5 45V135C114.5 136.989 113.71 138.897 112.303 140.303C110.897 141.71 108.989 142.5 107 142.5H62C60.0109 142.5 58.1032 141.71 56.6967 140.303C55.2902 138.897 54.5 136.989 54.5 135V45C54.5 43.0109 55.2902 41.1032 56.6967 39.6967C58.1032 38.2902 60.0109 37.5 62 37.5H107ZM62 30C58.0218 30 54.2064 31.5804 51.3934 34.3934C48.5804 37.2064 47 41.0218 47 45V135C47 138.978 48.5804 142.794 51.3934 145.607C54.2064 148.42 58.0218 150 62 150H107C110.978 150 114.794 148.42 117.607 145.607C120.42 142.794 122 138.978 122 135V45C122 41.0218 120.42 37.2064 117.607 34.3934C114.794 31.5804 110.978 30 107 30H62Z" fill="#333333"/>
<path d="M84.5 135C86.4891 135 88.3968 134.21 89.8033 132.803C91.2098 131.397 92 129.489 92 127.5C92 125.511 91.2098 123.603 89.8033 122.197C88.3968 120.79 86.4891 120 84.5 120C82.5109 120 80.6032 120.79 79.1967 122.197C77.7902 123.603 77 125.511 77 127.5C77 129.489 77.7902 131.397 79.1967 132.803C80.6032 134.21 82.5109 135 84.5 135Z" fill="#333333"/>
</g>
<rect x="84" y="60" width="80" height="35" rx="10" fill="#333333"/>
<rect x="113.333" y="68" width="43.5556" height="7" rx="2" fill="white"/>
<rect x="113.333" y="81" width="28.4444" height="7" rx="2" fill="white"/>
<ellipse cx="98.2221" cy="78" rx="8.88889" ry="10" fill="white"/>
<ellipse cx="40" cy="111.273" rx="25" ry="24.273" fill="white"/>
<g clip-path="url(#clip1_477_58)">
<path d="M39.7486 94.9492L51.6074 119.479C51.6609 119.619 51.6719 119.77 51.6392 119.916C51.6064 120.062 51.5313 120.195 51.4227 120.301C51.3141 120.406 51.1766 120.479 51.0265 120.511C50.8765 120.543 50.7202 120.532 50.5762 120.48L39.7486 116.976L28.9211 120.48C28.7771 120.532 28.6208 120.543 28.4707 120.511C28.3207 120.479 28.1832 120.406 28.0746 120.301C27.966 120.195 27.8908 120.062 27.8581 119.916C27.8254 119.77 27.8364 119.619 27.8899 119.479L39.7486 94.9492Z" fill="#F45B0F" stroke="#F45B0F" stroke-width="2" stroke-linecap="round" stroke-linejoin="round"/>
</g>
<defs>
<clipPath id="clip0_477_58">
<rect width="120" height="120" fill="white" transform="translate(25 30)"/>
</clipPath>
<clipPath id="clip1_477_58">
<rect width="34.4949" height="34.4949" fill="white" transform="matrix(0.717461 -0.696598 0.717461 0.696598 15 112.971)"/>
</clipPath>
</defs>
</svg>
