<svg width="86" height="50" viewBox="0 0 86 50" fill="none" xmlns="http://www.w3.org/2000/svg">
<rect x="1.98938" y="1.5" width="82" height="47" rx="23.5" stroke="black" stroke-width="3"/>
<path fill-rule="evenodd" clip-rule="evenodd" d="M24.6502 13.5C22.7644 13.4996 20.9115 14.0039 19.2764 14.9625C17.6413 15.9211 16.2812 17.3004 15.3319 18.9628C14.3826 20.6252 13.8773 22.5126 13.8664 24.4365C13.8556 26.3604 14.3395 28.2536 15.2699 29.9271C15.8988 29.0933 16.7072 28.4182 17.6326 27.954C18.5581 27.4898 19.5757 27.2489 20.607 27.25H28.6935C29.7247 27.2489 30.7424 27.4898 31.6678 27.954C32.5933 28.4182 33.4017 29.0933 34.0305 29.9271C34.961 28.2536 35.4449 26.3604 35.434 24.4365C35.4231 22.5126 34.9178 20.6252 33.9685 18.9628C33.0192 17.3004 31.6592 15.9211 30.0241 14.9625C28.389 14.0039 26.536 13.4996 24.6502 13.5ZM35.3554 32.8545C35.5243 32.6299 35.686 32.3998 35.8406 32.1642C37.3347 29.8992 38.1312 27.2302 38.1277 24.5C38.1277 16.9059 32.0938 10.75 24.6502 10.75C17.2066 10.75 11.1727 16.9059 11.1727 24.5C11.1685 27.5205 12.1432 30.4578 13.9451 32.8545L13.9383 32.8792L14.4168 33.4471C15.6808 34.9548 17.2503 36.165 19.0169 36.9941C20.7836 37.8233 22.7056 38.2518 24.6502 38.25C24.9413 38.25 25.2307 38.2408 25.5182 38.2225C27.95 38.066 30.2942 37.2366 32.2987 35.8231C33.2574 35.1484 34.1263 34.3497 34.8837 33.4471L35.3621 32.8792L35.3554 32.8545ZM24.6502 16.25C23.5779 16.25 22.5495 16.6846 21.7912 17.4582C21.033 18.2318 20.607 19.281 20.607 20.375C20.607 21.469 21.033 22.5182 21.7912 23.2918C22.5495 24.0654 23.5779 24.5 24.6502 24.5C25.7226 24.5 26.751 24.0654 27.5092 23.2918C28.2675 22.5182 28.6935 21.469 28.6935 20.375C28.6935 19.281 28.2675 18.2318 27.5092 17.4582C26.751 16.6846 25.7226 16.25 24.6502 16.25Z" fill="black"/>
<path d="M70.3091 24.5C70.3091 24.9103 70.1493 25.3037 69.865 25.5938C69.5807 25.8839 69.195 26.0469 68.7929 26.0469H46.555C46.1529 26.0469 45.7673 25.8839 45.4829 25.5938C45.1986 25.3037 45.0388 24.9103 45.0388 24.5C45.0388 24.0897 45.1986 23.6963 45.4829 23.4062C45.7673 23.1161 46.1529 22.9531 46.555 22.9531H68.7929C69.195 22.9531 69.5807 23.1161 69.865 23.4062C70.1493 23.6963 70.3091 24.0897 70.3091 24.5ZM46.555 17.7969H68.7929C69.195 17.7969 69.5807 17.6339 69.865 17.3438C70.1493 17.0537 70.3091 16.6603 70.3091 16.25C70.3091 15.8397 70.1493 15.4463 69.865 15.1562C69.5807 14.8661 69.195 14.7031 68.7929 14.7031H46.555C46.1529 14.7031 45.7673 14.8661 45.4829 15.1562C45.1986 15.4463 45.0388 15.8397 45.0388 16.25C45.0388 16.6603 45.1986 17.0537 45.4829 17.3438C45.7673 17.6339 46.1529 17.7969 46.555 17.7969ZM68.7929 31.2031H46.555C46.1529 31.2031 45.7673 31.3661 45.4829 31.6562C45.1986 31.9463 45.0388 32.3397 45.0388 32.75C45.0388 33.1603 45.1986 33.5537 45.4829 33.8438C45.7673 34.1339 46.1529 34.2969 46.555 34.2969H68.7929C69.195 34.2969 69.5807 34.1339 69.865 33.8438C70.1493 33.5537 70.3091 33.1603 70.3091 32.75C70.3091 32.3397 70.1493 31.9463 69.865 31.6562C69.5807 31.3661 69.195 31.2031 68.7929 31.2031Z" fill="black"/>
</svg>
