<svg width="181" height="180" viewBox="0 0 181 180" fill="none" xmlns="http://www.w3.org/2000/svg">
<circle cx="90.5" cy="90" r="90" fill="#FFD7CD"/>
<rect x="32.9768" y="57.3933" width="110.997" height="62.5333" fill="white"/>
<path d="M88.4751 69.8999C84.6101 69.8999 80.8319 71.046 77.6183 73.1933C74.4047 75.3406 71.9 78.3926 70.4209 81.9633C68.9419 85.5341 68.5549 89.4633 69.3089 93.254C70.0629 97.0447 71.9241 100.527 74.6571 103.26C77.39 105.993 80.872 107.854 84.6627 108.608C88.4534 109.362 92.3826 108.975 95.9534 107.496C99.5241 106.017 102.576 103.512 104.723 100.298C106.871 97.0848 108.017 93.3066 108.017 89.4416C108.017 84.2588 105.958 79.2883 102.293 75.6236C98.6284 71.9588 93.6579 69.8999 88.4751 69.8999ZM88.4751 101.167C86.1561 101.167 83.8892 100.479 81.961 99.1906C80.0329 97.9022 78.53 96.071 77.6426 93.9286C76.7552 91.7861 76.523 89.4286 76.9754 87.1542C77.4278 84.8797 78.5445 82.7905 80.1843 81.1508C81.824 79.511 83.9132 78.3943 86.1877 77.9419C88.4621 77.4895 90.8196 77.7217 92.9621 78.6091C95.1045 79.4965 96.9357 80.9994 98.2241 82.9275C99.5124 84.8557 100.2 87.1226 100.2 89.4416C100.2 92.5513 98.9648 95.5336 96.7659 97.7324C94.5671 99.9313 91.5848 101.167 88.4751 101.167ZM143.192 54.2666H33.7584C32.7219 54.2666 31.7278 54.6784 30.9948 55.4113C30.2619 56.1443 29.8501 57.1384 29.8501 58.1749V120.708C29.8501 121.745 30.2619 122.739 30.9948 123.472C31.7278 124.205 32.7219 124.617 33.7584 124.617H143.192C144.228 124.617 145.222 124.205 145.955 123.472C146.688 122.739 147.1 121.745 147.1 120.708V58.1749C147.1 57.1384 146.688 56.1443 145.955 55.4113C145.222 54.6784 144.228 54.2666 143.192 54.2666ZM120.548 116.8H56.4023C55.0901 112.362 52.6885 108.323 49.4161 105.051C46.1437 101.778 42.1047 99.3766 37.6668 98.0644V80.8188C42.1047 79.5066 46.1437 77.105 49.4161 73.8326C52.6885 70.5602 55.0901 66.5212 56.4023 62.0833H120.548C121.86 66.5212 124.262 70.5602 127.534 73.8326C130.806 77.105 134.846 79.5066 139.283 80.8188V98.0644C134.846 99.3766 130.806 101.778 127.534 105.051C124.262 108.323 121.86 112.362 120.548 116.8ZM139.283 72.5234C134.595 70.5081 130.859 66.7714 128.843 62.0833H139.283V72.5234ZM48.1069 62.0833C46.0916 66.7714 42.3549 70.5081 37.6668 72.5234V62.0833H48.1069ZM37.6668 106.36C42.3549 108.375 46.0916 112.112 48.1069 116.8H37.6668V106.36ZM128.843 116.8C130.859 112.112 134.595 108.375 139.283 106.36V116.8H128.843Z" fill="#F45B0F"/>
<path d="M53.5 31.5L47 26L29 41L47 63L64.5 64L66 47L59.75 39.25L53.5 31.5Z" fill="white" stroke="black"/>
<path d="M147.971 145.143L135.658 132.83C138.623 128.884 140.223 124.081 140.217 119.145C140.217 106.538 129.96 96.2812 117.353 96.2812C104.747 96.2812 94.4897 106.538 94.4897 119.145C94.4897 131.752 104.747 142.009 117.353 142.009C122.289 142.014 127.093 140.414 131.039 137.45L143.351 149.762C143.975 150.319 144.787 150.617 145.623 150.593C146.459 150.57 147.254 150.228 147.845 149.636C148.436 149.045 148.778 148.25 148.802 147.415C148.825 146.579 148.528 145.766 147.971 145.143ZM101.022 119.145C101.022 115.915 101.98 112.758 103.775 110.072C105.569 107.386 108.12 105.293 111.104 104.057C114.088 102.821 117.372 102.497 120.54 103.128C123.708 103.758 126.617 105.313 128.901 107.597C131.185 109.881 132.741 112.791 133.371 115.959C134.001 119.127 133.678 122.411 132.442 125.395C131.206 128.379 129.112 130.929 126.427 132.724C123.741 134.518 120.584 135.476 117.353 135.476C113.024 135.471 108.873 133.749 105.811 130.687C102.75 127.626 101.027 123.475 101.022 119.145Z" fill="#333333"/>
<path d="M49.1485 39.706C48.7476 40.0424 48.3034 40.2822 47.8162 40.4254C47.3289 40.5685 46.8395 40.6186 46.3478 40.5755C45.8562 40.5325 45.3829 40.3982 44.9279 40.1727C44.4729 39.9471 44.0771 39.6338 43.7407 39.2328C43.4042 38.8319 43.1644 38.3877 43.0213 37.9005C42.8781 37.4132 42.8281 36.9237 42.8711 36.4321C42.9141 35.9405 43.0484 35.4672 43.274 35.0122C43.4996 34.5572 43.8128 34.1614 44.2138 33.825C44.6148 33.4885 45.0589 33.2487 45.5462 33.1056C46.0334 32.9624 46.5229 32.9124 47.0145 32.9554C47.5061 32.9984 47.9795 33.1327 48.4345 33.3583C48.8895 33.5838 49.2852 33.8971 49.6217 34.2981C49.9581 34.6991 50.1979 35.1432 50.3411 35.6305C50.4842 36.1177 50.5343 36.6072 50.4913 37.0988C50.4482 37.5904 50.314 38.0637 50.0884 38.5188C49.8628 38.9738 49.5495 39.3695 49.1485 39.706ZM45.3446 37.887C45.653 38.2546 46.0428 38.4589 46.5139 38.5002C46.9851 38.5414 47.4147 38.4087 47.8027 38.1021C48.1703 37.7936 48.3747 37.4038 48.4159 36.9327C48.4571 36.4616 48.3244 36.032 48.0178 35.6439C47.7093 35.2764 47.3196 35.072 46.8484 35.0308C46.3773 34.9895 45.9477 35.1222 45.5596 35.4289C45.1921 35.7373 44.9877 36.1271 44.9465 36.5982C44.9053 37.0694 45.038 37.4989 45.3446 37.887ZM50.3838 48.2356C50.7203 48.6366 50.9601 49.0807 51.1032 49.568C51.2464 50.0552 51.2964 50.5447 51.2534 51.0363C51.2104 51.5279 51.0761 52.0013 50.8505 52.4563C50.625 52.9113 50.3117 53.307 49.9107 53.6435C49.5097 53.9799 49.0656 54.2197 48.5783 54.3629C48.0911 54.506 47.6016 54.5561 47.11 54.5131C46.6184 54.47 46.1451 54.3357 45.6901 54.1102C45.235 53.8846 44.8393 53.5713 44.5029 53.1703C44.1664 52.7694 43.9266 52.3252 43.7835 51.838C43.6403 51.3507 43.5903 50.8613 43.6333 50.3696C43.6763 49.878 43.8106 49.4047 44.0362 48.9497C44.2617 48.4947 44.575 48.0989 44.976 47.7625C45.377 47.426 45.8211 47.1862 46.3083 47.0431C46.7956 46.8999 47.2851 46.8499 47.7767 46.8929C48.2683 46.9359 48.7416 47.0702 49.1966 47.2958C49.6516 47.5214 50.0474 47.8346 50.3838 48.2356ZM46.1068 51.8245C46.4152 52.1921 46.805 52.3965 47.2761 52.4377C47.7472 52.4789 48.1768 52.3462 48.5649 52.0396C48.9324 51.7311 49.1368 51.3414 49.1781 50.8702C49.2193 50.3991 49.0866 49.9695 48.7799 49.5814C48.4715 49.2139 48.0817 49.0095 47.6106 48.9683C47.1395 48.927 46.7099 49.0598 46.3218 49.3664C45.9543 49.6748 45.7499 50.0646 45.7086 50.5357C45.6674 51.0069 45.8001 51.4365 46.1068 51.8245ZM54.7793 40.8077C55.1674 40.715 55.5745 40.8496 55.831 41.1552C56.3344 41.7551 56.0304 42.6749 55.2688 42.8569L39.3452 46.6607C38.9571 46.7534 38.55 46.6189 38.2935 46.3132C37.7902 45.7134 38.0941 44.7935 38.8557 44.6115L54.7793 40.8077ZM66.8257 45.572C67.3371 46.1815 67.5855 46.9692 67.5161 47.7619L66.1654 63.2003C66.021 64.8509 64.5659 66.0718 62.9154 65.9274L47.4769 64.5767C46.6843 64.5074 45.9517 64.126 45.4403 63.5165L28.4285 43.2426C27.3635 41.9734 27.529 40.0811 28.7982 39.0161L45.5874 24.9284C46.8566 23.8634 48.7489 24.0289 49.8139 25.2981L66.8257 45.572ZM46.8358 60.8366C47.3472 61.4461 48.0798 61.8275 48.8725 61.8968L60.3779 62.9034C62.0285 63.0478 63.4836 61.8268 63.628 60.1763L64.6346 48.6708C64.7039 47.8782 64.4556 47.0905 63.9441 46.481L49.4698 29.2311C48.4048 27.9619 46.5125 27.7963 45.2433 28.8614L32.7312 39.3602C31.462 40.4252 31.2964 42.3175 32.3614 43.5867L46.8358 60.8366ZM59.7954 56.7375C60.0384 57.0271 60.1429 57.3665 60.1089 57.7557C60.0748 58.1449 59.913 58.461 59.6234 58.704C59.3338 58.947 58.9944 59.0515 58.6052 59.0174C58.216 58.9834 57.8999 58.8216 57.6569 58.532C57.4139 58.2424 57.3094 57.903 57.3435 57.5138C57.3775 57.1246 57.5394 56.8085 57.829 56.5655C58.1185 56.3225 58.4579 56.218 58.8471 56.252C59.2364 56.2861 59.5525 56.4479 59.7954 56.7375Z" fill="black"/>
</svg>
