<svg width="182" height="196" viewBox="0 0 182 196" fill="none" xmlns="http://www.w3.org/2000/svg">
<circle cx="90.5" cy="90" r="90" fill="#FFD7CD"/>
<path d="M41.48 121.667C38.4089 121.667 35.8467 120.638 33.7933 118.58C31.74 116.522 30.7111 113.96 30.7067 110.893V45.7667C30.7067 42.7 31.7356 40.1378 33.7933 38.08C35.8511 36.0222 38.4111 34.9956 41.4733 35H139.94C143.007 35 145.567 36.0267 147.62 38.08C149.673 40.1333 150.702 42.6956 150.707 45.7667V110.9C150.707 113.967 149.678 116.527 147.62 118.58C145.562 120.633 143 121.662 139.933 121.667H41.48ZM22.5 135V128.333H158.913V135H22.5Z" fill="white"/>
<path d="M69.7917 120.375C68.3879 120.375 67.25 119.237 67.25 117.833V69.3333C67.25 67.5873 67.9436 65.9128 69.1782 64.6782C70.1322 63.7243 71.3488 63.0933 72.6581 62.8557C72.7916 62.8315 72.9325 62.8072 73.0792 62.7818C73.8669 62.6458 74.8237 62.4806 75.7183 62.1451L99.9875 53.0442C102.252 52.1952 104.667 53.8688 104.667 56.2868C104.667 58.1238 105.481 59.6665 106.499 60.8979C107.511 62.1225 108.805 63.1382 109.96 63.9525C110.265 64.1678 110.554 64.4102 110.822 64.6782C112.056 65.9128 112.75 67.5873 112.75 69.3333V113.875C112.75 117.465 109.84 120.375 106.25 120.375H98C94.4102 120.375 91.5 117.465 91.5 113.875V109.667C91.5 104.42 87.2467 100.167 82 100.167H81.8333C76.5866 100.167 72.3333 104.42 72.3333 109.667V117.833C72.3333 119.237 71.1954 120.375 69.7917 120.375ZM96.5833 109.75C96.5833 112.811 99.0644 115.292 102.125 115.292C105.186 115.292 107.667 112.811 107.667 109.75V105.708C107.667 102.648 105.186 100.167 102.125 100.167C99.0644 100.167 96.5833 102.648 96.5833 105.708V109.75ZM72.3333 85.5C72.3333 88.5606 74.8144 91.0417 77.875 91.0417C80.9356 91.0417 83.4167 88.5606 83.4167 85.5V77.4167C83.4167 74.3561 80.9356 71.875 77.875 71.875C74.8144 71.875 72.3333 74.3561 72.3333 77.4167V85.5ZM88.5 81.5417C88.5 86.7884 92.7533 91.0417 98 91.0417H98.1667C103.413 91.0417 107.667 86.7884 107.667 81.5417V81.375C107.667 76.1283 103.413 71.875 98.1667 71.875H98C92.7533 71.875 88.5 76.1283 88.5 81.375V81.5417Z" fill="#F45B0F" stroke="#333333" stroke-width="3"/>
<g clip-path="url(#clip0_488_358)">
<g filter="url(#filter0_d_488_358)">
<path d="M169.047 159.543L147.714 138.21C152.85 131.373 155.623 123.05 155.613 114.498C155.613 92.6547 137.842 74.8833 115.998 74.8833C94.1547 74.8833 76.3833 92.6547 76.3833 114.498C76.3833 136.342 94.1547 154.113 115.998 154.113C124.55 154.123 132.873 151.35 139.71 146.214L161.043 167.547C162.123 168.512 163.532 169.028 164.98 168.987C166.427 168.947 167.805 168.353 168.829 167.329C169.853 166.305 170.447 164.927 170.487 163.48C170.528 162.032 170.012 160.623 169.047 159.543ZM87.7018 114.498C87.7018 108.902 89.3614 103.431 92.4706 98.7776C95.5799 94.1243 99.9991 90.4974 105.17 88.3558C110.34 86.2141 116.03 85.6537 121.518 86.7455C127.007 87.8374 132.049 90.5323 136.007 94.4896C139.964 98.4469 142.659 103.489 143.751 108.978C144.843 114.467 144.282 120.156 142.141 125.327C139.999 130.497 136.372 134.916 131.719 138.026C127.065 141.135 121.595 142.794 115.998 142.794C108.496 142.785 101.304 139.801 95.9996 134.497C90.6949 129.192 87.7108 122 87.7018 114.498Z" fill="#333333"/>
</g>
</g>
<g filter="url(#filter1_d_488_358)">
<circle cx="37" cy="34.5" r="23.5" fill="white"/>
<path d="M46.8216 38.3834C47.7185 36.7 48.1859 34.8212 48.1821 32.9138C48.1821 26.4784 42.9654 21.2617 36.53 21.2617C30.0947 21.2617 24.8779 26.4784 24.8779 32.9138C24.8731 35.6625 25.8448 38.3236 27.6196 40.4225L27.6333 40.4397L27.6457 40.4534H27.6196L34.5341 47.7942C34.7904 48.0663 35.0997 48.2831 35.4429 48.4313C35.786 48.5794 36.1559 48.6559 36.5297 48.6559C36.9035 48.6559 37.2733 48.5794 37.6165 48.4313C37.9597 48.2831 38.269 48.0663 38.5253 47.7942L45.4405 40.4534H45.4144L45.4254 40.4404L45.4267 40.439C45.4761 40.38 45.5252 40.3206 45.5741 40.2608C46.0497 39.6766 46.4674 39.0483 46.8216 38.3834ZM36.5335 37.3683C35.4428 37.3683 34.3967 36.935 33.6255 36.1638C32.8542 35.3926 32.421 34.3465 32.421 33.2558C32.421 32.1651 32.8542 31.1191 33.6255 30.3478C34.3967 29.5766 35.4428 29.1433 36.5335 29.1433C37.6242 29.1433 38.6702 29.5766 39.4414 30.3478C40.2127 31.1191 40.646 32.1651 40.646 33.2558C40.646 34.3465 40.2127 35.3926 39.4414 36.1638C38.6702 36.935 37.6242 37.3683 36.5335 37.3683Z" fill="#F45B0F"/>
</g>
<rect x="70.5" y="156" width="40" height="40" rx="20" fill="#F45B0F"/>
<path d="M90.196 184V170.848L87.7 171.28V169.096L92.788 168.304V184H90.196Z" fill="white"/>
<defs>
<filter id="filter0_d_488_358" x="26.3833" y="24.8833" width="194.106" height="194.106" filterUnits="userSpaceOnUse" color-interpolation-filters="sRGB">
<feFlood flood-opacity="0" result="BackgroundImageFix"/>
<feColorMatrix in="SourceAlpha" type="matrix" values="0 0 0 0 0 0 0 0 0 0 0 0 0 0 0 0 0 0 127 0" result="hardAlpha"/>
<feOffset/>
<feGaussianBlur stdDeviation="25"/>
<feComposite in2="hardAlpha" operator="out"/>
<feColorMatrix type="matrix" values="0 0 0 0 0 0 0 0 0 0 0 0 0 0 0 0 0 0 0.25 0"/>
<feBlend mode="normal" in2="BackgroundImageFix" result="effect1_dropShadow_488_358"/>
<feBlend mode="normal" in="SourceGraphic" in2="effect1_dropShadow_488_358" result="shape"/>
</filter>
<filter id="filter1_d_488_358" x="9.5" y="11" width="55" height="55" filterUnits="userSpaceOnUse" color-interpolation-filters="sRGB">
<feFlood flood-opacity="0" result="BackgroundImageFix"/>
<feColorMatrix in="SourceAlpha" type="matrix" values="0 0 0 0 0 0 0 0 0 0 0 0 0 0 0 0 0 0 127 0" result="hardAlpha"/>
<feOffset dy="4"/>
<feGaussianBlur stdDeviation="2"/>
<feComposite in2="hardAlpha" operator="out"/>
<feColorMatrix type="matrix" values="0 0 0 0 0 0 0 0 0 0 0 0 0 0 0 0 0 0 0.25 0"/>
<feBlend mode="normal" in2="BackgroundImageFix" result="effect1_dropShadow_488_358"/>
<feBlend mode="normal" in="SourceGraphic" in2="effect1_dropShadow_488_358" result="shape"/>
</filter>
<clipPath id="clip0_488_358">
<rect width="116.087" height="116.087" fill="white" transform="translate(65.5 64)"/>
</clipPath>
</defs>
</svg>
