<svg width="50" height="51" viewBox="0 0 50 51" fill="none" xmlns="http://www.w3.org/2000/svg">
<g clip-path="url(#clip0_404_553)">
<path d="M17.418 2.29591C12.4222 4.02899 8.11384 7.31843 5.12574 11.6811C2.13764 16.0437 0.627304 21.2496 0.816565 26.5341C1.00583 31.8185 2.88471 36.903 6.17725 41.0407C9.46978 45.1784 14.0024 48.1512 19.1094 49.5225C23.2497 50.5908 27.5875 50.6377 31.75 49.6592C35.5208 48.8122 39.007 47.0005 41.8672 44.4014C44.8441 41.6137 47.0048 38.0673 48.1172 34.1436C49.3262 29.8766 49.5414 25.3894 48.7461 21.0264H25.4961V30.6709H38.9609C38.6918 32.2091 38.1152 33.6773 37.2654 34.9874C36.4157 36.2976 35.3104 37.4229 34.0156 38.2959C32.3714 39.3835 30.5179 40.1153 28.5742 40.4443C26.6248 40.8068 24.6252 40.8068 22.6758 40.4443C20.6999 40.0358 18.8308 39.2203 17.1875 38.0498C14.5474 36.181 12.5651 33.5261 11.5234 30.4639C10.4641 27.3443 10.4641 23.9623 11.5234 20.8428C12.2649 18.6561 13.4907 16.6652 15.1094 15.0186C16.9617 13.0996 19.3068 11.7279 21.8873 11.054C24.4679 10.3801 27.1842 10.43 29.7383 11.1982C31.7335 11.8107 33.558 12.8808 35.0664 14.3232C36.5846 12.8128 38.1003 11.2985 39.6133 9.78028C40.3945 8.96388 41.2461 8.18653 42.0156 7.35059C39.7131 5.20792 37.0105 3.54066 34.0625 2.44434C28.6941 0.495085 22.8202 0.442701 17.418 2.29591Z" fill="white"/>
<path d="M17.418 2.29591C22.8198 0.441448 28.6937 0.492453 34.0625 2.44044C37.011 3.54421 39.7124 5.2195 42.0117 7.37013C41.2305 8.20607 40.4062 8.98732 39.6094 9.79982C38.0938 11.3128 36.5794 12.8207 35.0664 14.3233C33.558 12.8808 31.7335 11.8107 29.7383 11.1983C27.1851 10.4273 24.4688 10.3745 21.8876 11.0457C19.3063 11.7168 16.9598 13.086 15.1055 15.0029C13.4868 16.6496 12.261 18.6405 11.5195 20.8272L3.42188 14.5576C6.32034 8.80982 11.3389 4.41319 17.418 2.29591Z" fill="#E33629"/>
<path d="M1.27343 20.7686C1.70867 18.6115 2.43125 16.5226 3.42186 14.5576L11.5195 20.8428C10.4602 23.9623 10.4602 27.3443 11.5195 30.4639C8.8216 32.5472 6.12239 34.641 3.42186 36.7451C0.941984 31.8089 0.185663 26.1846 1.27343 20.7686Z" fill="#F8BD00"/>
<path d="M25.4961 21.0225H48.7461C49.5414 25.3855 49.3263 29.8727 48.1172 34.1396C47.0048 38.0634 44.8441 41.6098 41.8672 44.3975C39.2539 42.3584 36.6289 40.335 34.0156 38.2959C35.3112 37.422 36.4171 36.2955 37.2668 34.9839C38.1166 33.6723 38.6928 32.2027 38.9609 30.6631H25.4961C25.4922 27.4521 25.4961 24.2373 25.4961 21.0225Z" fill="#587DBD"/>
<path d="M3.41797 36.7451C6.11849 34.6618 8.81771 32.568 11.5156 30.4639C12.5594 33.5271 14.5446 36.1822 17.1875 38.0498C18.836 39.2149 20.7091 40.0238 22.6875 40.4248C24.6369 40.7873 26.6365 40.7873 28.5859 40.4248C30.5297 40.0958 32.3831 39.364 34.0273 38.2764C36.6406 40.3154 39.2656 42.3389 41.8789 44.3779C39.0191 46.9784 35.5329 48.7915 31.7617 49.6397C27.5993 50.6182 23.2614 50.5713 19.1211 49.5029C15.8465 48.6286 12.7878 47.0873 10.1367 44.9756C7.33071 42.7478 5.03889 39.9403 3.41797 36.7451Z" fill="#319F43"/>
</g>
<defs>
<clipPath id="clip0_404_553">
<rect width="50" height="50" fill="white" transform="translate(0 0.651367)"/>
</clipPath>
</defs>
</svg>
