<svg width="181" height="180" viewBox="0 0 181 180" fill="none" xmlns="http://www.w3.org/2000/svg">
<circle cx="90.5" cy="90" r="90" fill="#FFD7CD"/>
<path fill-rule="evenodd" clip-rule="evenodd" d="M60.5416 62.875C60.5416 55.0622 63.6453 47.5693 69.1698 42.0448C74.6943 36.5203 82.1871 33.4167 90 33.4167C97.8128 33.4167 105.306 36.5203 110.83 42.0448C116.355 47.5693 119.458 55.0622 119.458 62.875V67.2306C126.596 68.2533 132.083 74.3932 132.083 81.8125V82.8646C132.083 84.6894 131.717 86.4957 131.008 88.177C130.298 89.8583 129.26 91.3806 127.953 92.6544C126.646 93.9281 125.098 94.9275 123.399 95.5937C121.7 96.2598 119.885 96.5793 118.061 96.5333C114.947 105.455 107.027 111.469 98.4798 112.992C96.5018 113.716 94.162 113.375 92.1041 113.375C90.4299 113.375 88.8243 112.71 87.6405 111.526C86.4567 110.342 85.7916 108.737 85.7916 107.063C85.7916 105.388 86.4567 103.783 87.6405 102.599C88.8243 101.415 90.4299 100.75 92.1041 100.75H96.3125C97.3006 100.75 98.2751 100.982 99.1573 101.427C100.04 101.872 100.805 102.518 101.392 103.313C106.846 100.716 111.042 95.2329 111.042 88.125V62.875C111.042 57.2944 108.825 51.9424 104.879 47.9963C100.933 44.0502 95.5806 41.8334 90 41.8334C84.4194 41.8334 79.0673 44.0502 75.1213 47.9963C71.1752 51.9424 68.9583 57.2944 68.9583 62.875V89.1771C68.9583 91.1303 68.1824 93.0035 66.8013 94.3847C65.4201 95.7658 63.5469 96.5417 61.5937 96.5417C57.9663 96.5417 54.4875 95.1007 51.9226 92.5358C49.3576 89.9708 47.9166 86.492 47.9166 82.8646V81.8125C47.9157 78.27 49.1916 74.8459 51.5104 72.1677C53.8291 69.4895 57.0355 67.7367 60.5416 67.2306V62.875ZM60.5416 75.8577C59.3104 76.293 58.2444 77.0995 57.4907 78.166C56.737 79.2325 56.3326 80.5066 56.3333 81.8125V82.8646C56.3333 85.4106 58.1429 87.5359 60.5416 88.0198V75.8577ZM119.458 75.8577V88.0198C121.857 87.5317 123.667 85.4106 123.667 82.8646V81.8125C123.667 80.5066 123.263 79.2325 122.509 78.166C121.756 77.0995 120.69 76.293 119.458 75.8577Z" fill="#333333"/>
<rect x="50.5" y="122" width="80" height="35" rx="10" fill="#F45B0F"/>
<rect x="79.8334" y="130" width="43.5556" height="7" rx="2" fill="white"/>
<rect x="79.8334" y="143" width="28.4444" height="7" rx="2" fill="white"/>
<ellipse cx="64.7223" cy="140" rx="8.88889" ry="10" fill="white"/>
</svg>
